<svg xmlns="http://www.w3.org/2000/svg" viewBox="0 0 520 260" shape-rendering="crispEdges">
  <style>
    .outline{fill:#170f1f}
    .skin1{fill:#f1b690}.skin2{fill:#ffd4a8}.skin3{fill:#d99167}.skin4{fill:#f4c2a3}
    .hair1{fill:#4a2417}.hair2{fill:#f4c86a}.hair3{fill:#221028}.hair4{fill:#6d351f}
    .pink{fill:#ff3c9a}.blue{fill:#36b8ff}.aqua{fill:#72ecff}.yellow{fill:#ffe45c}.denim{fill:#222fa4}.black{fill:#1a1230}.white{fill:#fff7e8}
    .shoe{fill:#ff62b6}.shoe2{fill:#2db7ff}.shadow{fill:#3b1b46;opacity:.32}
  </style>

  <rect class="shadow" x="18" y="236" width="94" height="10"/>
  <rect class="shadow" x="151" y="236" width="94" height="10"/>
  <rect class="shadow" x="284" y="236" width="94" height="10"/>
  <rect class="shadow" x="407" y="236" width="94" height="10"/>

  <g class="d1" transform="translate(18 8)">
    <rect class="outline" x="33" y="0" width="45" height="18"/>
    <rect class="hair1" x="38" y="5" width="38" height="18"/>
    <rect class="outline" x="24" y="18" width="60" height="44"/>
    <rect class="hair1" x="29" y="18" width="50" height="52"/>
    <rect class="outline" x="36" y="36" width="30" height="34"/>
    <rect class="skin1" x="41" y="41" width="20" height="24"/>
    <rect class="outline" x="44" y="52" width="5" height="5"/>
    <rect class="outline" x="56" y="52" width="5" height="5"/>
    <rect class="pink" x="49" y="61" width="8" height="4"/>
    <rect class="outline" x="34" y="76" width="38" height="54"/>
    <rect class="pink" x="39" y="81" width="28" height="44"/>
    <rect class="outline" x="16" y="82" width="16" height="70" transform="rotate(24 24 82)"/>
    <rect class="skin1" x="21" y="88" width="7" height="58" transform="rotate(24 24 88)"/>
    <rect class="outline" x="72" y="82" width="16" height="70" transform="rotate(-32 80 82)"/>
    <rect class="skin1" x="77" y="88" width="7" height="58" transform="rotate(-32 80 88)"/>
    <rect class="outline" x="28" y="124" width="48" height="32"/>
    <rect class="denim" x="34" y="130" width="36" height="22"/>
    <rect class="outline" x="32" y="154" width="18" height="70" transform="rotate(7 41 154)"/>
    <rect class="denim" x="37" y="160" width="8" height="58" transform="rotate(7 41 160)"/>
    <rect class="outline" x="58" y="154" width="18" height="70" transform="rotate(-9 67 154)"/>
    <rect class="denim" x="63" y="160" width="8" height="58" transform="rotate(-9 67 160)"/>
    <rect class="outline" x="24" y="220" width="34" height="17"/>
    <rect class="shoe" x="29" y="222" width="24" height="9"/>
    <rect class="outline" x="56" y="220" width="34" height="17"/>
    <rect class="shoe" x="61" y="222" width="24" height="9"/>
  </g>

  <g class="d2" transform="translate(150 0)">
    <rect class="outline" x="28" y="0" width="56" height="82"/>
    <rect class="hair2" x="33" y="5" width="46" height="88"/>
    <rect class="outline" x="39" y="42" width="30" height="34"/>
    <rect class="skin2" x="44" y="47" width="20" height="24"/>
    <rect class="outline" x="47" y="58" width="5" height="5"/>
    <rect class="outline" x="59" y="58" width="5" height="5"/>
    <rect class="pink" x="51" y="68" width="9" height="4"/>
    <rect class="outline" x="35" y="86" width="38" height="58"/>
    <rect class="aqua" x="40" y="91" width="28" height="48"/>
    <rect class="outline" x="16" y="92" width="15" height="74" transform="rotate(-35 23 92)"/>
    <rect class="skin2" x="21" y="98" width="6" height="60" transform="rotate(-35 23 98)"/>
    <rect class="outline" x="77" y="92" width="15" height="74" transform="rotate(42 84 92)"/>
    <rect class="skin2" x="82" y="98" width="6" height="60" transform="rotate(42 84 98)"/>
    <rect class="outline" x="30" y="140" width="48" height="40"/>
    <rect class="aqua" x="36" y="146" width="36" height="30"/>
    <rect class="outline" x="35" y="176" width="16" height="58" transform="rotate(-2 43 176)"/>
    <rect class="aqua" x="40" y="181" width="7" height="48" transform="rotate(-2 43 181)"/>
    <rect class="outline" x="59" y="176" width="16" height="58" transform="rotate(5 67 176)"/>
    <rect class="aqua" x="64" y="181" width="7" height="48" transform="rotate(5 67 181)"/>
    <rect class="outline" x="25" y="229" width="34" height="17"/>
    <rect class="shoe" x="30" y="231" width="24" height="9"/>
    <rect class="outline" x="58" y="229" width="34" height="17"/>
    <rect class="shoe" x="63" y="231" width="24" height="9"/>
  </g>

  <g class="d3" transform="translate(282 8)">
    <rect class="outline" x="24" y="14" width="62" height="76"/>
    <rect class="hair3" x="29" y="19" width="52" height="76"/>
    <rect class="outline" x="39" y="44" width="30" height="34"/>
    <rect class="skin4" x="44" y="49" width="20" height="24"/>
    <rect class="outline" x="47" y="60" width="5" height="5"/>
    <rect class="outline" x="59" y="60" width="5" height="5"/>
    <rect class="pink" x="51" y="70" width="8" height="4"/>
    <rect class="outline" x="36" y="90" width="38" height="52"/>
    <rect class="yellow" x="41" y="95" width="28" height="42"/>
    <rect class="outline" x="15" y="94" width="15" height="74" transform="rotate(40 22 94)"/>
    <rect class="skin4" x="20" y="100" width="6" height="60" transform="rotate(40 22 100)"/>
    <rect class="outline" x="80" y="94" width="15" height="74" transform="rotate(-23 87 94)"/>
    <rect class="skin4" x="85" y="100" width="6" height="60" transform="rotate(-23 87 100)"/>
    <rect class="outline" x="27" y="136" width="56" height="50"/>
    <rect class="pink" x="33" y="142" width="44" height="39"/>
    <rect class="outline" x="34" y="182" width="17" height="52" transform="rotate(14 42 182)"/>
    <rect class="pink" x="39" y="187" width="8" height="42" transform="rotate(14 42 187)"/>
    <rect class="outline" x="63" y="182" width="17" height="52" transform="rotate(-14 71 182)"/>
    <rect class="pink" x="68" y="187" width="8" height="42" transform="rotate(-14 71 187)"/>
    <rect class="outline" x="20" y="228" width="34" height="17"/>
    <rect class="shoe2" x="25" y="230" width="24" height="9"/>
    <rect class="outline" x="64" y="228" width="34" height="17"/>
    <rect class="shoe2" x="69" y="230" width="24" height="9"/>
  </g>

  <g class="d4" transform="translate(406 6)">
    <rect class="outline" x="25" y="4" width="58" height="82"/>
    <rect class="hair4" x="30" y="9" width="48" height="88"/>
    <rect class="outline" x="39" y="46" width="30" height="34"/>
    <rect class="skin3" x="44" y="51" width="20" height="24"/>
    <rect class="outline" x="47" y="62" width="5" height="5"/>
    <rect class="outline" x="59" y="62" width="5" height="5"/>
    <rect class="pink" x="51" y="72" width="8" height="4"/>
    <rect class="outline" x="36" y="92" width="38" height="56"/>
    <rect class="blue" x="41" y="97" width="28" height="46"/>
    <rect class="outline" x="16" y="96" width="15" height="72" transform="rotate(-32 23 96)"/>
    <rect class="skin3" x="21" y="102" width="6" height="58" transform="rotate(-32 23 102)"/>
    <rect class="outline" x="78" y="96" width="15" height="72" transform="rotate(22 85 96)"/>
    <rect class="skin3" x="83" y="102" width="6" height="58" transform="rotate(22 85 102)"/>
    <rect class="outline" x="29" y="144" width="52" height="36"/>
    <rect class="black" x="35" y="150" width="40" height="26"/>
    <rect class="outline" x="33" y="176" width="17" height="58" transform="rotate(-6 41 176)"/>
    <rect class="black" x="38" y="181" width="8" height="48" transform="rotate(-6 41 181)"/>
    <rect class="outline" x="62" y="176" width="17" height="58" transform="rotate(12 70 176)"/>
    <rect class="black" x="67" y="181" width="8" height="48" transform="rotate(12 70 181)"/>
    <rect class="outline" x="24" y="228" width="34" height="17"/>
    <rect class="shoe" x="29" y="230" width="24" height="9"/>
    <rect class="outline" x="58" y="228" width="34" height="17"/>
    <rect class="shoe" x="63" y="230" width="24" height="9"/>
  </g>
</svg>
